<?xml version="1.0" standalone="no"?>
<svg
  width="600"
  height="600"
  viewBox="0 0 600 600"
  xmlns="http://www.w3.org/2000/svg"
>
  <g transform="translate(300,300)">
    <path d="M130.1,-206.8C162.6,-181.6,178.6,-135.3,194.6,-91.5C210.6,-47.6,226.6,-6.4,219.9,30.8C213.3,68,184.1,101.1,156.6,139.3C129.1,177.5,103.3,220.7,65.6,238.7C27.9,256.8,-21.7,249.8,-60.2,228C-98.7,206.1,-126,169.5,-154.1,134.8C-182.1,100.1,-210.8,67.3,-229.4,25C-247.9,-17.3,-256.3,-69.1,-241.5,-114C-226.7,-158.8,-188.8,-196.8,-144.7,-216.6C-100.6,-236.5,-50.3,-238.2,-0.7,-237.1C48.8,-236,97.7,-232,130.1,-206.8Z" fill="#003459" />
  </g>
</svg>
  